<?xml version="1.0" encoding="utf-8"?>
<!-- Generator: Adobe Illustrator 19.1.0, SVG Export Plug-In . SVG Version: 6.00 Build 0)  -->
<svg version="1.1" id="Layer_1" xmlns="http://www.w3.org/2000/svg" xmlns:xlink="http://www.w3.org/1999/xlink" x="0px" y="0px"
	 viewBox="0 0 100 29.8" style="enable-background:new 0 0 100 29.8;" xml:space="preserve">
<style type="text/css">
	.st0{fill:#21409A;}
	.st1{fill:#E93829;}
	.st2{fill:#FFFFFF;}
	.st3{fill:#21409A;stroke:#21409A;stroke-width:0.5;stroke-miterlimit:10;}
	.st4{fill:#21409A;stroke:#21409A;stroke-width:0.2;stroke-miterlimit:10;}
	.st5{fill:#E93829;stroke:#FFFFFF;stroke-width:0.35;stroke-miterlimit:10;}
</style>
<path class="st0" d="M31.3,15.3c0-5.3-4.4-9.7-9.9-9.7s-9.9,4.3-9.9,9.7H31.3z"/>
<g>
	<path class="st1" d="M22.5,19.9"/>
	<g>
		<path class="st1" d="M24.9,22.4l0,4.9H30V15.9H11.5v11.4h4.8V22C16.3,22,20,25.2,24.9,22.4"/>
		<path class="st1" d="M27.3,15.9c0,0-0.2,10.1,5.3,9.7c0,0,1.5-0.1,2.2-1.6c0,0,0.7-1.4,0.9-3.7l-1.6,0c0,0,0.3,2.8-1.4,3.1
			c0,0-2.3,0.4-1.4-7.4H27.3z"/>
	</g>
</g>
<path class="st0" d="M62.2,14.4c1,1.4,2.6,1,4.3-1.3c1.7-2.3,2.3-5.2,1.2-6.6s-4.6-0.2-5,0.5C60.9,9.9,61.2,13,62.2,14.4z"/>
<path class="st0" d="M66.1,13.3c0,0,2.7-2.5,3.3,2h15.4c0,0,0.4-2.3-2.2-4c-1.8-1.1-8-1.7-12.4-0.9c0,0-1.7-1.5-2.8-2
	C66.4,8,66.1,13.3,66.1,13.3z"/>
<path class="st1" d="M69.3,15.9c0,0,0.1,3.7,1.7,4.7v5.2l-1,1.5h4.2l-0.1-5.7c0,0,3.4,1.6,7.9-0.3l0.1,4.5l-0.9,1.4h3.8V16.7
	l1.5,1.1c0,0,0.7,0.4,0.6-0.6l-1.9-1.3H69.3z"/>
<polygon class="st2" points="66.1,9.5 65.2,10.1 65.4,8.9 64.6,8.2 65.6,8 66.1,7 66.6,8 67.6,8.2 66.9,8.9 67,10.1 "/>
<polygon class="st2" points="28.1,12.5 27.2,13 27.4,11.9 26.6,11.1 27.7,11 28.1,9.9 28.6,11 29.6,11.1 28.9,11.9 29.1,13 "/>
<polygon class="st2" points="14.1,19.5 13.2,20 13.4,18.9 12.6,18.1 13.7,18 14.1,16.9 14.6,18 15.6,18.1 14.9,18.9 15.1,20 "/>
<polygon class="st2" points="18.3,19.5 17.4,20 17.6,18.9 16.8,18.1 17.8,18 18.3,16.9 18.8,18 19.8,18.1 19,18.9 19.2,20 "/>
<polygon class="st2" points="22.5,19.5 21.6,20 21.8,18.9 21,18.1 22.1,18 22.5,16.9 23,18 24,18.1 23.3,18.9 23.5,20 "/>
<polygon class="st2" points="26.6,19.5 25.7,20 25.9,18.9 25.1,18.1 26.2,18 26.6,16.9 27.1,18 28.1,18.1 27.4,18.9 27.6,20 "/>
<polygon class="st2" points="73,19.5 72.1,20 72.3,18.9 71.6,18.1 72.6,18 73,16.9 73.5,18 74.5,18.1 73.8,18.9 74,20 "/>
<polygon class="st2" points="77.2,19.5 76.3,20 76.5,18.9 75.7,18.1 76.8,18 77.2,16.9 77.7,18 78.7,18.1 78,18.9 78.1,20 "/>
<polygon class="st2" points="81.4,19.5 80.5,20 80.7,18.9 80,18.1 81,18 81.4,16.9 81.9,18 82.9,18.1 82.2,18.9 82.4,20 "/>
<path class="st3" d="M67.6,6.9c0,0,1.4-2.5,0.7-4.2c0,0-1.8,1.3-2.7,3.4C65.7,6,66.5,7.4,67.6,6.9z"/>
<path class="st3" d="M65.1,7.2c0,0,1.4-3.7,0.4-5.3c0,0-2,2.6-2.5,4.8C63,6.7,64.1,7.8,65.1,7.2z"/>
<path class="st1" d="M86.9,16.8c0,0,1,0.6,1.2,1.9c0,0-0.8,0.2-2-0.9C86.1,17.8,86.1,16.7,86.9,16.8z"/>
<g>
	<g>
		<path class="st4" d="M39.5,16.4c-0.5,1.5-1.6,2.2-3.6,2.1c-1,0-1.9-0.2-2.6-0.5l-0.1,0v0.4c0,0.3,0,0.6,0.2,0.8
			c0,0,0.1,0.1,0.2,0.2c0.1,0.1,0.2,0.2,0.2,0.2c0,0.1,0,0.1-0.1,0.2c-0.1,0.1-0.2,0.1-0.4,0.1c-0.3,0-0.6-0.1-0.7-0.2
			c-0.1-0.1-0.1-0.2-0.2-0.4c0-0.3,0-0.6,0-0.9c0-0.2,0-0.4,0.1-0.8c0-0.3,0.1-0.6,0.1-0.8c0-0.2,0-0.5,0.1-0.8
			c0.1-0.4,0.1-0.6,0.1-0.8v-0.8c0,0,0-0.1-0.1-0.2c0-0.1-0.1-0.2-0.1-0.2c0-0.1,0.1-0.2,0.4-0.2c0.2,0,0.3,0,0.5,0.1
			c0.1,0.1,0.2,0.2,0.2,0.3c0,0.1,0,0.2-0.1,0.3c0,0.1-0.1,0.2-0.1,0.3V15c0.3-0.2,0.5-0.5,0.8-0.7c0.6-0.4,1.4-0.7,2.4-0.7
			c1.1,0,1.9,0.2,2.4,0.7c0.4,0.4,0.7,0.9,0.7,1.4C39.6,16,39.6,16.2,39.5,16.4z M38.8,15.9c0-0.5-0.1-0.9-0.4-1.2
			c-0.4-0.4-1-0.7-1.7-0.7c-1,0-1.8,0.3-2.5,1c-0.6,0.6-0.9,1.2-0.9,1.7v0.5c0,0.1,0.1,0.2,0.6,0.5c0.5,0.3,1.1,0.4,2,0.4
			c0.8,0,1.5-0.1,1.9-0.4c0.3-0.2,0.6-0.6,0.8-1C38.7,16.3,38.8,16,38.8,15.9z"/>
		<path class="st4" d="M45.6,18c0,0.5-0.2,0.9-0.6,1.3c-0.5,0.4-1.2,0.7-2.1,0.7c-0.9,0-1.6-0.2-2-0.5c-0.4-0.3-0.5-0.7-0.5-1.2
			c0-0.5,0.2-1,0.6-1.5c0.5-0.6,1.2-0.9,2-0.9c0.2,0,0.5,0.1,0.9,0.2C45,16.4,45.6,17,45.6,18z M44.8,17.9c0-0.4-0.1-0.7-0.3-1
			c-0.3-0.4-0.7-0.6-1.3-0.6c-0.7,0-1.2,0.2-1.6,0.7c-0.3,0.4-0.4,0.7-0.4,1.1c0,0.4,0.1,0.7,0.3,0.9c0.3,0.3,0.7,0.5,1.3,0.5
			c0.7,0,1.2-0.2,1.5-0.6C44.6,18.7,44.8,18.3,44.8,17.9z"/>
		<path class="st4" d="M47.8,19.6c0,0.2-0.2,0.2-0.5,0.2c-0.5,0-0.7-0.5-0.7-1.6l0-3.9c0-0.1,0-0.2,0-0.3c0-0.1,0-0.2,0-0.3
			c0.2-0.1,0.4-0.1,0.5-0.1c0.2,0,0.3,0,0.5,0.1c0.2,0.1,0.2,0.1,0.2,0.2c0,0.1,0,0.1-0.1,0.2c-0.1,0.1-0.1,0.2-0.1,0.2
			c-0.1,0.4-0.2,0.9-0.2,1.7c0,1.1,0,1.7,0,1.7c0,0.7,0.1,1.3,0.3,1.6c0,0,0,0.1,0.1,0.1C47.7,19.5,47.8,19.5,47.8,19.6z"/>
		<path class="st4" d="M49.7,16.1l0,3c0,0.1,0.1,0.3,0.2,0.5c0,0-0.1,0.1-0.2,0.1c-0.5,0-0.8-0.1-0.8-0.4v-3.2
			C48.9,16.1,49.7,16,49.7,16.1z"/>
		<path class="st4" d="M53.8,16.9c-0.1,0-0.3,0.1-0.6,0.1c-0.4,0-0.6,0-0.6,0.1c0,0.1,0,0.4,0,1c0,0.5,0,0.8,0,0.9
			c0,0.1,0,0.2,0.1,0.3c0.1,0.1,0.1,0.2,0.1,0.3c0,0-0.1,0.1-0.2,0.1c-0.1,0-0.2,0.1-0.3,0.1c-0.2,0-0.4-0.1-0.5-0.4
			c-0.1-0.2-0.1-0.3-0.1-0.5c0-0.8,0-1.4,0-1.8c-0.1,0-0.3,0-0.7,0c-0.3,0-0.5,0-0.5-0.2c0-0.2,0.4-0.3,1.3-0.3l0.2-1.6
			c0,0,0,0,0-0.1c0,0,0-0.1,0-0.1c0,0,0-0.1,0.1-0.1c0.1,0,0.2,0,0.3,0c0.4,0,0.6,0.1,0.6,0.3c0,0.1,0,0.4-0.1,0.7
			c-0.1,0.3-0.1,0.5-0.1,0.6c0,0.1,0,0.1,0,0.2l0.9,0c0.3,0,0.5,0.1,0.5,0.2C54.1,16.8,54,16.9,53.8,16.9z"/>
		<path class="st4" d="M55.8,16.1l0,3c0,0.1,0.1,0.3,0.2,0.5c0,0-0.1,0.1-0.2,0.1c-0.5,0-0.8-0.1-0.8-0.4v-3.2
			C55.1,16.1,55.8,16,55.8,16.1z"/>
		<path class="st4" d="M62.2,17.5c0,0.6-0.2,1.1-0.5,1.4c-0.4,0.5-1.1,0.8-2,0.8c-0.6,0-1.1-0.1-1.6-0.4c-0.1,0-0.1,0.2-0.1,0.5
			c0,0.8,0.1,1.3,0.2,1.6c0,0,0.1,0.1,0.2,0.2c0.1,0.1,0.1,0.2,0.1,0.2c0,0.1-0.1,0.1-0.3,0.1c-0.3,0-0.5,0-0.6-0.1
			c-0.1,0-0.2-0.2-0.3-0.4c-0.1-0.2-0.1-0.3-0.1-0.5v-2.2c0-0.2,0-0.5,0.1-0.8c0-0.4,0.1-0.7,0.1-0.8c0-0.2,0-0.4,0-0.6
			c0-0.3,0-0.5,0-0.6c0-0.4,0.2-0.6,0.6-0.6c0.2,0,0.3,0,0.3,0.1c0,0.1,0,0.4-0.1,0.6c0,0.3-0.1,0.5-0.1,0.6h0.1
			c0.3-0.2,0.5-0.4,0.8-0.5c0.3-0.2,0.7-0.3,1.1-0.3c0.7,0,1.3,0.2,1.7,0.5C62.1,16.8,62.2,17.1,62.2,17.5z M61.4,17.6
			c0-0.3-0.1-0.6-0.2-0.8c-0.2-0.3-0.5-0.5-0.9-0.5c-0.3,0-0.7,0.1-1.1,0.4c-0.4,0.2-0.7,0.5-0.8,0.8c-0.1,0.2-0.2,0.5-0.3,0.9
			c0,0.3-0.1,0.4-0.1,0.4c0,0,0,0,0.1,0.1c0.1,0,0.1,0,0.2,0.1c0.2,0.1,0.4,0.3,0.5,0.4c0.2,0.1,0.5,0.2,0.8,0.2
			c0.6,0,1.1-0.3,1.4-0.8C61.3,18.4,61.4,18,61.4,17.6z"/>
		<path class="st4" d="M67.9,19.2c0,0.2-0.3,0.4-0.9,0.5c-0.5,0.1-1,0.2-1.4,0.2c-0.3,0-0.6,0-1-0.1c-0.2,0-0.5-0.2-1-0.4
			c-0.5-0.2-0.8-0.4-0.8-0.4c0-0.2,0.2-0.3,0.6-0.2h0.1c0,0.2,0.4,0.4,1.1,0.6c0.6,0.2,1.1,0.3,1.5,0.3c0.5,0,0.7-0.1,0.7-0.3
			c0-0.1-0.3-0.2-0.9-0.4c-0.8-0.3-1.4-0.5-1.7-0.6c-0.6-0.3-0.9-0.7-0.9-1.1c0-0.3,0.1-0.6,0.4-0.9c0.3-0.3,0.8-0.5,1.3-0.5
			c0.4,0,0.8,0.1,1.4,0.3c0.5,0.2,0.8,0.4,0.9,0.6c0.1,0.2,0.1,0.3,0.1,0.5c0,0.2-0.1,0.5-0.2,0.7C67.1,18,67,18,66.9,18
			c-0.1,0-0.2,0-0.4,0c-0.2,0-0.2-0.1-0.2-0.1c0,0,0.1,0,0.2-0.2c0.1-0.1,0.1-0.3,0.1-0.5c0-0.6-0.4-0.9-1.1-0.9
			c-0.4,0-0.7,0.1-0.9,0.4c-0.2,0.2-0.3,0.4-0.3,0.7c0,0.3,0.3,0.6,0.9,0.8c0.2,0.1,0.8,0.3,1.7,0.6C67.5,18.9,67.9,19,67.9,19.2z"
			/>
	</g>
</g>
<circle class="st3" cx="49.3" cy="14.5" r="1"/>
<circle class="st5" cx="49.3" cy="14.5" r="0.8"/>
<circle class="st0" cx="49.3" cy="14.5" r="0.4"/>
<circle class="st3" cx="55.5" cy="14.5" r="1"/>
<circle class="st5" cx="55.5" cy="14.5" r="0.8"/>
<circle class="st0" cx="55.5" cy="14.5" r="0.4"/>
</svg>
