<?xml version="1.0" encoding="utf-8"?>
<!-- Generator: Adobe Illustrator 19.1.0, SVG Export Plug-In . SVG Version: 6.00 Build 0)  -->
<svg version="1.1" id="Layer_1" xmlns="http://www.w3.org/2000/svg" xmlns:xlink="http://www.w3.org/1999/xlink" x="0px" y="0px"
	 viewBox="0 0 77.8 22" style="enable-background:new 0 0 77.8 22;" xml:space="preserve">
<style type="text/css">
	.st0{fill:#21409A;}
	.st1{fill:#E93829;}
	.st2{fill:#FFFFFF;}
	.st3{fill:#21409A;stroke:#21409A;stroke-width:0.5;stroke-miterlimit:10;}
	.st4{fill:#21409A;stroke:#21409A;stroke-width:0.2;stroke-miterlimit:10;}
	.st5{fill:#E93829;stroke:#FFFFFF;stroke-width:0.25;stroke-miterlimit:10;}
</style>
<path class="st0" d="M23.9,10.6c0-3.5-4-6.4-9-6.4s-9,2.9-9,6.4H23.9z"/>
<g>
	<path class="st1" d="M15.9,13.6"/>
	<g>
		<path class="st1" d="M18.1,15.3l0,3.2h4.6V11H5.8v7.5h4.4V15C10.2,15,13.6,17.1,18.1,15.3"/>
		<path class="st1" d="M20.2,11c0,0-0.2,6.7,4.8,6.4c0,0,1.3-0.1,2-1c0,0,0.7-0.9,0.8-2.5l-1.5,0c0,0,0.3,1.9-1.2,2
			c0,0-2.1,0.2-1.3-4.9H20.2z"/>
	</g>
</g>
<path class="st0" d="M52,9.9c0.9,0.9,2.3,0.7,3.9-0.8c1.6-1.5,2.1-3.4,1.1-4.4c-0.9-0.9-4.2-0.1-4.5,0.3C50.9,7,51.1,9,52,9.9z"/>
<path class="st0" d="M55.6,9.3c0,0,2.5-1.7,3,1.3h14c0,0,0.3-1.6-2-2.7C69,7.2,63.3,6.8,59.3,7.3c0,0-1.6-1-2.5-1.3
	C55.8,5.7,55.6,9.3,55.6,9.3z"/>
<path class="st1" d="M58.5,11c0,0,0.1,2.5,1.6,3.1v3.5l-0.9,1h3.8l-0.1-3.8c0,0,3.1,1.1,7.2-0.2l0.1,3l-0.8,0.9h3.5v-7l1.4,0.7
	c0,0,0.6,0.3,0.5-0.4L72.8,11H58.5z"/>
<polygon class="st2" points="55.6,6.8 54.7,7.1 54.9,6.4 54.2,5.8 55.1,5.7 55.6,5.1 56,5.7 56.9,5.8 56.3,6.4 56.4,7.1 "/>
<polygon class="st2" points="21,8.7 20.1,9.1 20.3,8.3 19.6,7.8 20.6,7.7 21,7 21.4,7.7 22.3,7.8 21.7,8.3 21.8,9.1 "/>
<polygon class="st2" points="8.2,13.3 7.4,13.7 7.6,13 6.9,12.4 7.8,12.3 8.2,11.7 8.7,12.3 9.6,12.4 8.9,13 9.1,13.7 "/>
<polygon class="st2" points="12,13.3 11.2,13.7 11.3,13 10.7,12.4 11.6,12.3 12,11.7 12.5,12.3 13.4,12.4 12.7,13 12.9,13.7 "/>
<polygon class="st2" points="15.9,13.3 15,13.7 15.2,13 14.5,12.4 15.5,12.3 15.9,11.7 16.3,12.3 17.2,12.4 16.6,13 16.7,13.7 "/>
<polygon class="st2" points="19.6,13.4 18.8,13.7 18.9,13 18.3,12.4 19.2,12.3 19.6,11.7 20,12.3 21,12.4 20.3,13 20.5,13.7 "/>
<polygon class="st2" points="61.9,13.3 61.1,13.7 61.2,13 60.5,12.4 61.5,12.3 61.9,11.7 62.3,12.3 63.3,12.4 62.6,13 62.7,13.7 "/>
<polygon class="st2" points="65.7,13.3 64.8,13.7 65,13 64.3,12.4 65.3,12.3 65.7,11.7 66.1,12.3 67.1,12.4 66.4,13 66.5,13.7 "/>
<polygon class="st2" points="69.5,13.3 68.7,13.7 68.9,13 68.2,12.4 69.1,12.3 69.5,11.7 70,12.3 70.9,12.4 70.2,13 70.4,13.7 "/>
<path class="st3" d="M57,5c0,0,1.3-1.6,0.7-2.8c0,0-1.6,0.9-2.5,2.2C55.2,4.4,56,5.3,57,5z"/>
<path class="st3" d="M54.7,5.2c0,0,1.3-2.4,0.4-3.5c0,0-1.8,1.7-2.3,3.2C52.7,4.9,53.7,5.6,54.7,5.2z"/>
<path class="st1" d="M74.5,11.5c0,0,0.9,0.4,1.1,1.3c0,0-0.7,0.2-1.8-0.6C73.8,12.2,73.8,11.5,74.5,11.5z"/>
<g>
	<g>
		<path class="st4" d="M31.4,11.3c-0.4,1-1.5,1.4-3.2,1.4c-0.9,0-1.7-0.1-2.4-0.4l-0.1,0v0.2c0,0.2,0,0.4,0.2,0.5
			c0,0,0.1,0.1,0.2,0.1s0.2,0.1,0.2,0.1c0,0,0,0.1-0.1,0.1c-0.1,0-0.2,0.1-0.3,0.1c-0.3,0-0.5,0-0.6-0.1c-0.1-0.1-0.1-0.1-0.2-0.3
			c0-0.2,0-0.4,0-0.6c0-0.1,0-0.3,0.1-0.5c0-0.2,0.1-0.4,0.1-0.5c0-0.1,0-0.3,0.1-0.5c0.1-0.2,0.1-0.4,0.1-0.5V9.9
			c0,0,0-0.1-0.1-0.1c0-0.1-0.1-0.1-0.1-0.1c0-0.1,0.1-0.1,0.4-0.1c0.2,0,0.3,0,0.4,0.1c0.1,0.1,0.2,0.1,0.2,0.2c0,0,0,0.1-0.1,0.2
			c0,0.1-0.1,0.2-0.1,0.2v0.1c0.2-0.2,0.5-0.3,0.7-0.5c0.5-0.3,1.3-0.4,2.2-0.4c1,0,1.7,0.2,2.2,0.5c0.4,0.2,0.6,0.6,0.6,0.9
			C31.4,11,31.4,11.1,31.4,11.3z M30.7,11c0-0.3-0.1-0.6-0.4-0.8c-0.4-0.3-0.9-0.4-1.6-0.4c-0.9,0-1.6,0.2-2.2,0.7
			c-0.5,0.4-0.8,0.8-0.8,1.1v0.3c0,0,0.1,0.1,0.6,0.3c0.4,0.2,1,0.3,1.8,0.3c0.8,0,1.3-0.1,1.7-0.3c0.3-0.1,0.5-0.4,0.7-0.7
			C30.6,11.2,30.7,11.1,30.7,11z"/>
		<path class="st4" d="M36.9,12.3c0,0.3-0.2,0.6-0.6,0.9c-0.5,0.3-1.1,0.4-1.9,0.4c-0.8,0-1.4-0.1-1.8-0.4c-0.3-0.2-0.5-0.5-0.5-0.8
			c0-0.3,0.2-0.6,0.6-1c0.5-0.4,1.1-0.6,1.8-0.6c0.2,0,0.5,0,0.8,0.1C36.3,11.3,36.9,11.7,36.9,12.3z M36.1,12.3
			c0-0.2-0.1-0.5-0.3-0.7c-0.3-0.3-0.6-0.4-1.2-0.4c-0.6,0-1.1,0.2-1.4,0.5c-0.3,0.2-0.4,0.5-0.4,0.8c0,0.2,0.1,0.4,0.3,0.6
			c0.3,0.2,0.7,0.3,1.2,0.3c0.6,0,1.1-0.1,1.4-0.4C36,12.8,36.1,12.6,36.1,12.3z"/>
		<path class="st4" d="M38.9,13.4c0,0.1-0.1,0.1-0.4,0.1c-0.4,0-0.7-0.3-0.6-1l0-2.6c0,0,0-0.1,0-0.2c0-0.1,0-0.1,0-0.2
			c0.2-0.1,0.4-0.1,0.5-0.1c0.1,0,0.3,0,0.4,0.1c0.1,0,0.2,0.1,0.2,0.1c0,0,0,0.1-0.1,0.1c-0.1,0.1-0.1,0.1-0.1,0.1
			c-0.1,0.3-0.2,0.6-0.2,1.1c0,0.8,0,1.1,0,1.1c0,0.5,0.1,0.8,0.2,1.1C38.7,13.2,38.7,13.3,38.9,13.4C38.8,13.3,38.9,13.4,38.9,13.4
			z"/>
		<path class="st4" d="M40.6,11.1l0,2c0,0.1,0.1,0.2,0.2,0.3c0,0-0.1,0-0.2,0c-0.5,0-0.7-0.1-0.7-0.3v-2.1
			C39.9,11.1,40.6,11,40.6,11.1z"/>
		<path class="st4" d="M44.4,11.6c-0.1,0-0.3,0-0.6,0.1c-0.3,0-0.5,0-0.6,0c0,0,0,0.3,0,0.6c0,0.3,0,0.5,0,0.6c0,0,0,0.1,0.1,0.2
			c0.1,0.1,0.1,0.2,0.1,0.2c0,0-0.1,0.1-0.2,0.1c-0.1,0-0.2,0-0.3,0c-0.2,0-0.4-0.1-0.5-0.2c-0.1-0.1-0.1-0.2-0.1-0.3
			c0-0.5,0-0.9,0-1.2c-0.1,0-0.3,0-0.7,0c-0.3,0-0.5,0-0.5-0.1c0-0.1,0.4-0.2,1.2-0.2l0.2-1c0,0,0,0,0-0.1c0,0,0,0,0-0.1
			c0,0,0,0,0.1-0.1c0.1,0,0.2,0,0.3,0c0.4,0,0.5,0.1,0.5,0.2c0,0.1,0,0.2-0.1,0.4c-0.1,0.2-0.1,0.3-0.1,0.4c0,0,0,0.1,0,0.1l0.8,0
			c0.3,0,0.4,0,0.4,0.1C44.6,11.6,44.5,11.6,44.4,11.6z"/>
		<path class="st4" d="M46.2,11.1l0,2c0,0.1,0.1,0.2,0.2,0.3c0,0-0.1,0-0.2,0c-0.5,0-0.7-0.1-0.7-0.3v-2.1
			C45.6,11.1,46.2,11,46.2,11.1z"/>
		<path class="st4" d="M52,12c0,0.4-0.1,0.7-0.4,1c-0.4,0.4-1,0.5-1.9,0.5c-0.6,0-1-0.1-1.5-0.3c-0.1,0-0.1,0.1-0.1,0.4
			c0,0.5,0.1,0.9,0.2,1.1c0,0,0.1,0.1,0.1,0.1c0.1,0.1,0.1,0.1,0.1,0.1c0,0.1-0.1,0.1-0.3,0.1c-0.2,0-0.4,0-0.5,0
			c-0.1,0-0.2-0.1-0.2-0.3c-0.1-0.1-0.1-0.2-0.1-0.3V13c0-0.1,0-0.3,0.1-0.5c0-0.3,0.1-0.4,0.1-0.5c0-0.1,0-0.2,0-0.4
			c0-0.2,0-0.3,0-0.4c0-0.3,0.2-0.4,0.5-0.4c0.2,0,0.3,0,0.3,0.1c0,0.1,0,0.2-0.1,0.4c0,0.2-0.1,0.3-0.1,0.4h0.1
			c0.2-0.1,0.5-0.2,0.7-0.4c0.3-0.1,0.6-0.2,1-0.2c0.7,0,1.2,0.1,1.5,0.3C51.9,11.5,52,11.8,52,12z M51.3,12.1
			c0-0.2-0.1-0.4-0.2-0.5c-0.2-0.2-0.4-0.3-0.8-0.3c-0.3,0-0.6,0.1-1,0.3c-0.4,0.2-0.6,0.3-0.7,0.5c-0.1,0.1-0.2,0.3-0.3,0.6
			c0,0.2-0.1,0.3-0.1,0.3c0,0,0,0,0.1,0.1c0.1,0,0.1,0,0.2,0.1c0.2,0.1,0.3,0.2,0.5,0.3c0.2,0.1,0.4,0.1,0.7,0.1
			c0.6,0,1-0.2,1.2-0.5C51.2,12.6,51.3,12.3,51.3,12.1z"/>
		<path class="st4" d="M57.2,13.1c0,0.1-0.3,0.2-0.8,0.3c-0.4,0.1-0.9,0.1-1.3,0.1c-0.3,0-0.6,0-0.9-0.1c-0.2,0-0.5-0.1-0.9-0.2
			c-0.5-0.1-0.7-0.2-0.7-0.3c0-0.1,0.2-0.2,0.6-0.2h0.1c0,0.1,0.3,0.2,1,0.4c0.6,0.1,1,0.2,1.4,0.2c0.4,0,0.7-0.1,0.7-0.2
			c0-0.1-0.3-0.2-0.8-0.3c-0.7-0.2-1.3-0.3-1.5-0.4c-0.6-0.2-0.8-0.4-0.8-0.7c0-0.2,0.1-0.4,0.4-0.6c0.3-0.2,0.7-0.3,1.2-0.3
			c0.3,0,0.8,0.1,1.2,0.2c0.5,0.1,0.8,0.2,0.8,0.4c0.1,0.1,0.1,0.2,0.1,0.4c0,0.1-0.1,0.3-0.2,0.5c-0.1,0-0.2,0-0.3,0
			c-0.1,0-0.2,0-0.3,0c-0.2,0-0.2,0-0.2-0.1c0,0,0.1,0,0.2-0.1C56,12,56,11.9,56,11.8c0-0.4-0.3-0.6-1-0.6c-0.4,0-0.6,0.1-0.8,0.3
			c-0.2,0.1-0.3,0.3-0.3,0.4c0,0.2,0.3,0.4,0.9,0.5c0.2,0.1,0.7,0.2,1.6,0.4C56.9,12.9,57.2,13,57.2,13.1z"/>
	</g>
</g>
<ellipse class="st3" cx="40.3" cy="10.1" rx="0.9" ry="0.7"/>
<ellipse class="st5" cx="40.3" cy="10.1" rx="0.7" ry="0.5"/>
<ellipse class="st0" cx="40.3" cy="10.1" rx="0.4" ry="0.3"/>
<ellipse class="st3" cx="45.9" cy="10" rx="0.9" ry="0.7"/>
<ellipse class="st5" cx="45.9" cy="10" rx="0.7" ry="0.5"/>
<ellipse class="st0" cx="45.9" cy="10" rx="0.4" ry="0.3"/>
</svg>
