<?xml version="1.0" encoding="utf-8"?>
<!-- Generator: Adobe Illustrator 19.1.0, SVG Export Plug-In . SVG Version: 6.00 Build 0)  -->
<svg version="1.1" id="Layer_1" xmlns="http://www.w3.org/2000/svg" xmlns:xlink="http://www.w3.org/1999/xlink" x="0px" y="0px"
	 viewBox="0 0 59.3 18.7" style="enable-background:new 0 0 59.3 18.7;" xml:space="preserve">
<style type="text/css">
	.st0{fill:#21409A;}
	.st1{fill:#E93829;}
	.st2{fill:#FFFFFF;}
	.st3{fill:#21409A;stroke:#21409A;stroke-width:0.5;stroke-miterlimit:10;}
	.st4{fill:#21409A;stroke:#21409A;stroke-width:0.2;stroke-miterlimit:10;}
	.st5{fill:#E93829;stroke:#FFFFFF;stroke-width:0.25;stroke-miterlimit:10;}
</style>
<path class="st0" d="M16.2,9.9c0-3.6-3.3-6.6-7.4-6.6S1.4,6.2,1.4,9.9H16.2z"/>
<g>
	<path class="st1" d="M9.7,13"/>
	<g>
		<path class="st1" d="M11.5,14.7l0,3.3h3.8v-7.7H1.4V18H5v-3.6C5,14.4,7.8,16.6,11.5,14.7"/>
		<path class="st1" d="M13.3,10.3c0,0-0.2,6.9,4,6.6c0,0,1.1-0.1,1.7-1.1c0,0,0.6-1,0.7-2.5l-1.2,0c0,0,0.2,1.9-1,2.1
			c0,0-1.7,0.2-1.1-5H13.3z"/>
	</g>
</g>
<path class="st0" d="M39.4,9.2c0.8,0.9,1.9,0.7,3.2-0.9s1.7-3.5,0.9-4.5c-0.8-0.9-3.5-0.1-3.7,0.3C38.4,6.2,38.6,8.3,39.4,9.2z"/>
<path class="st0" d="M42.3,8.5c0,0,2-1.7,2.5,1.4h11.5c0,0,0.3-1.6-1.7-2.7c-1.3-0.8-6-1.2-9.3-0.6c0,0-1.3-1-2.1-1.3
	C42.5,4.9,42.3,8.5,42.3,8.5z"/>
<path class="st1" d="M44.7,10.3c0,0,0.1,2.5,1.3,3.2V17l-0.8,1h3.1l-0.1-3.9c0,0,2.5,1.1,5.9-0.2l0.1,3.1l-0.7,1h2.9v-7.2l1.1,0.7
	c0,0,0.5,0.3,0.4-0.4l-1.4-0.9H44.7z"/>
<polygon class="st2" points="42.3,5.9 41.6,6.3 41.7,5.5 41.2,5 41.9,4.9 42.3,4.2 42.6,4.9 43.4,5 42.9,5.5 43,6.3 "/>
<polygon class="st2" points="13.9,8 13.2,8.3 13.3,7.6 12.8,7 13.5,6.9 13.9,6.2 14.2,6.9 15,7 14.4,7.6 14.6,8.3 "/>
<polygon class="st2" points="3.4,12.7 2.7,13.1 2.8,12.3 2.3,11.8 3.1,11.7 3.4,11 3.7,11.7 4.5,11.8 4,12.3 4.1,13.1 "/>
<polygon class="st2" points="6.5,12.7 5.8,13.1 6,12.3 5.4,11.8 6.2,11.7 6.5,11 6.9,11.7 7.6,11.8 7.1,12.3 7.2,13.1 "/>
<polygon class="st2" points="9.7,12.7 9,13.1 9.1,12.3 8.6,11.8 9.3,11.7 9.7,11 10,11.7 10.8,11.8 10.2,12.3 10.4,13.1 "/>
<polygon class="st2" points="12.8,12.7 12.1,13.1 12.2,12.3 11.6,11.8 12.4,11.7 12.8,11 13.1,11.7 13.9,11.8 13.3,12.3 13.5,13.1 
	"/>
<polygon class="st2" points="47.5,12.7 46.8,13.1 46.9,12.3 46.4,11.8 47.1,11.7 47.5,11 47.8,11.7 48.6,11.8 48,12.3 48.2,13.1 "/>
<polygon class="st2" points="50.6,12.7 49.9,13.1 50,12.3 49.5,11.8 50.3,11.7 50.6,11 51,11.7 51.7,11.8 51.2,12.3 51.3,13.1 "/>
<polygon class="st2" points="53.8,12.7 53.1,13.1 53.2,12.3 52.7,11.8 53.4,11.7 53.8,11 54.1,11.7 54.9,11.8 54.3,12.3 54.5,13.1 
	"/>
<path class="st3" d="M43.4,4.1c0,0,1.1-1.7,0.6-2.9c0,0-1.3,0.9-2,2.3C42,3.5,42.6,4.5,43.4,4.1z"/>
<path class="st3" d="M41.5,4.3c0,0,1.1-2.5,0.3-3.6c0,0-1.5,1.8-1.9,3.3C40,4,40.8,4.8,41.5,4.3z"/>
<path class="st1" d="M57.9,10.9c0,0,0.7,0.4,0.9,1.3c0,0-0.6,0.2-1.5-0.6C57.3,11.5,57.3,10.8,57.9,10.9z"/>
<g>
	<g>
		<path class="st4" d="M22.4,10.6c-0.3,1-1.2,1.5-2.7,1.4c-0.8,0-1.4-0.1-2-0.4l-0.1,0v0.2c0,0.2,0,0.4,0.1,0.5c0,0,0.1,0.1,0.1,0.1
			c0.1,0.1,0.1,0.1,0.1,0.1c0,0,0,0.1-0.1,0.1c-0.1,0-0.2,0.1-0.3,0.1c-0.2,0-0.4,0-0.5-0.1c-0.1-0.1-0.1-0.2-0.1-0.3
			c0-0.2,0-0.4,0-0.6c0-0.1,0-0.3,0.1-0.5c0-0.2,0.1-0.4,0-0.5c0-0.1,0-0.3,0.1-0.6c0-0.2,0.1-0.4,0.1-0.5V9.2c0,0,0-0.1,0-0.1
			c0-0.1,0-0.1,0-0.1c0-0.1,0.1-0.1,0.3-0.1c0.1,0,0.3,0,0.4,0.1c0.1,0.1,0.1,0.1,0.1,0.2c0,0.1,0,0.1-0.1,0.2
			c0,0.1-0.1,0.2-0.1,0.2v0.2c0.2-0.2,0.4-0.3,0.6-0.5c0.4-0.3,1-0.4,1.8-0.4c0.8,0,1.4,0.2,1.8,0.5c0.3,0.3,0.5,0.6,0.5,1
			C22.5,10.3,22.4,10.5,22.4,10.6z M21.8,10.3c0-0.3-0.1-0.6-0.3-0.8C21.2,9.1,20.8,9,20.2,9c-0.7,0-1.3,0.2-1.8,0.7
			c-0.4,0.4-0.6,0.8-0.6,1.2v0.3c0,0,0.1,0.1,0.5,0.3c0.4,0.2,0.8,0.3,1.5,0.3c0.6,0,1.1-0.1,1.4-0.3c0.2-0.1,0.4-0.4,0.6-0.7
			C21.8,10.5,21.8,10.4,21.8,10.3z"/>
		<path class="st4" d="M26.9,11.7c0,0.3-0.2,0.6-0.5,0.9c-0.4,0.3-0.9,0.5-1.6,0.5c-0.7,0-1.2-0.1-1.5-0.4c-0.3-0.2-0.4-0.5-0.4-0.8
			c0-0.3,0.2-0.7,0.5-1c0.4-0.4,0.9-0.6,1.5-0.6c0.2,0,0.4,0,0.7,0.1C26.5,10.6,26.9,11,26.9,11.7z M26.3,11.7
			c0-0.3-0.1-0.5-0.2-0.7c-0.2-0.3-0.5-0.4-1-0.4c-0.5,0-0.9,0.2-1.2,0.5c-0.2,0.2-0.3,0.5-0.3,0.8c0,0.2,0.1,0.5,0.2,0.6
			c0.2,0.2,0.6,0.3,1,0.3c0.5,0,0.9-0.1,1.1-0.4C26.2,12.2,26.3,11.9,26.3,11.7z"/>
		<path class="st4" d="M28.6,12.8c0,0.1-0.1,0.2-0.3,0.2c-0.4,0-0.5-0.4-0.5-1.1l0-2.7c0,0,0-0.1,0-0.2c0-0.1,0-0.1,0-0.2
			c0.2-0.1,0.3-0.1,0.4-0.1c0.1,0,0.2,0,0.3,0.1c0.1,0,0.2,0.1,0.2,0.1c0,0,0,0.1-0.1,0.2c0,0.1-0.1,0.1-0.1,0.1
			c-0.1,0.3-0.1,0.6-0.1,1.1c0,0.8,0,1.2,0,1.1c0,0.5,0.1,0.9,0.2,1.1C28.4,12.6,28.5,12.6,28.6,12.8C28.5,12.7,28.6,12.7,28.6,12.8
			z"/>
		<path class="st4" d="M30,10.4l0,2c0,0.1,0,0.2,0.1,0.4c0,0-0.1,0-0.1,0c-0.4,0-0.6-0.1-0.6-0.3v-2.2C29.5,10.4,30,10.3,30,10.4z"
			/>
		<path class="st4" d="M33.1,11c-0.1,0-0.2,0-0.5,0.1c-0.3,0-0.4,0-0.5,0c0,0,0,0.3,0,0.7c0,0.3,0,0.5,0,0.6c0,0,0,0.1,0.1,0.2
			c0,0.1,0.1,0.2,0.1,0.2c0,0,0,0.1-0.1,0.1c-0.1,0-0.2,0-0.2,0c-0.2,0-0.3-0.1-0.4-0.2c-0.1-0.1-0.1-0.2-0.1-0.3c0-0.6,0-1,0-1.2
			c0,0-0.2,0-0.6,0c-0.3,0-0.4,0-0.4-0.1c0-0.1,0.3-0.2,1-0.2l0.2-1.1c0,0,0,0,0-0.1c0,0,0,0,0-0.1c0,0,0,0,0.1-0.1
			c0.1,0,0.1,0,0.2,0c0.3,0,0.4,0.1,0.4,0.2c0,0.1,0,0.2-0.1,0.4c-0.1,0.2-0.1,0.3-0.1,0.4c0,0,0,0.1,0,0.1l0.7,0
			c0.2,0,0.3,0,0.3,0.1C33.3,10.9,33.2,10.9,33.1,11z"/>
		<path class="st4" d="M34.6,10.4l0,2.1c0,0.1,0,0.2,0.1,0.4c0,0-0.1,0-0.1,0c-0.4,0-0.6-0.1-0.6-0.3v-2.2
			C34.1,10.4,34.6,10.3,34.6,10.4z"/>
		<path class="st4" d="M39.4,11.4c0,0.4-0.1,0.7-0.4,1c-0.3,0.4-0.8,0.6-1.5,0.6c-0.5,0-0.9-0.1-1.2-0.3c-0.1,0-0.1,0.1-0.1,0.4
			c0,0.5,0.1,0.9,0.2,1.1c0,0,0,0.1,0.1,0.1c0.1,0.1,0.1,0.1,0.1,0.1c0,0.1-0.1,0.1-0.2,0.1c-0.2,0-0.3,0-0.4,0s-0.1-0.1-0.2-0.3
			c0-0.1-0.1-0.2-0.1-0.3v-1.5c0-0.1,0-0.3,0-0.6c0-0.3,0-0.5,0.1-0.6c0-0.1,0-0.2,0-0.4c0-0.2,0-0.4,0-0.4c0-0.3,0.1-0.4,0.4-0.4
			c0.1,0,0.2,0,0.2,0.1c0,0.1,0,0.2,0,0.4c0,0.2,0,0.3,0,0.4h0c0.2-0.1,0.4-0.2,0.6-0.4c0.2-0.1,0.5-0.2,0.8-0.2
			c0.6,0,1,0.1,1.3,0.4C39.3,10.9,39.4,11.1,39.4,11.4z M38.8,11.4c0-0.2,0-0.4-0.1-0.5c-0.1-0.2-0.4-0.3-0.7-0.3
			c-0.2,0-0.5,0.1-0.8,0.3c-0.3,0.2-0.5,0.3-0.6,0.5c-0.1,0.1-0.2,0.3-0.2,0.6c0,0.2,0,0.3,0,0.3c0,0,0,0,0.1,0.1c0,0,0.1,0,0.1,0.1
			c0.1,0.1,0.3,0.2,0.4,0.3c0.1,0.1,0.3,0.1,0.6,0.1c0.5,0,0.8-0.2,1-0.5C38.7,11.9,38.8,11.7,38.8,11.4z"/>
		<path class="st4" d="M43.6,12.5c0,0.1-0.2,0.3-0.7,0.3c-0.4,0.1-0.7,0.1-1.1,0.1c-0.2,0-0.5,0-0.8-0.1c-0.2,0-0.4-0.1-0.8-0.3
			c-0.4-0.1-0.6-0.2-0.6-0.3c0-0.1,0.2-0.2,0.5-0.2h0.1c0,0.1,0.3,0.2,0.8,0.4c0.5,0.1,0.8,0.2,1.1,0.2c0.4,0,0.5-0.1,0.5-0.2
			c0-0.1-0.2-0.2-0.7-0.3c-0.6-0.2-1-0.3-1.3-0.4c-0.5-0.2-0.7-0.5-0.7-0.7c0-0.2,0.1-0.4,0.3-0.6c0.3-0.2,0.6-0.3,1-0.3
			c0.3,0,0.6,0.1,1,0.2c0.4,0.1,0.6,0.2,0.7,0.4c0.1,0.1,0.1,0.2,0.1,0.4c0,0.2-0.1,0.3-0.2,0.5c-0.1,0-0.2,0-0.3,0
			c-0.1,0-0.1,0-0.3,0c-0.1,0-0.2,0-0.2-0.1c0,0,0,0,0.1-0.1c0.1-0.1,0.1-0.2,0.1-0.4c0-0.4-0.3-0.6-0.8-0.6c-0.3,0-0.5,0.1-0.7,0.3
			c-0.1,0.2-0.2,0.3-0.2,0.5c0,0.2,0.2,0.4,0.7,0.6c0.2,0.1,0.6,0.2,1.3,0.4C43.4,12.3,43.6,12.4,43.6,12.5z"/>
	</g>
</g>
<ellipse class="st3" cx="29.7" cy="9.3" rx="0.7" ry="0.7"/>
<ellipse class="st5" cx="29.7" cy="9.3" rx="0.6" ry="0.5"/>
<ellipse class="st0" cx="29.7" cy="9.3" rx="0.3" ry="0.3"/>
<ellipse class="st3" cx="34.4" cy="9.3" rx="0.7" ry="0.7"/>
<ellipse class="st5" cx="34.4" cy="9.3" rx="0.6" ry="0.5"/>
<ellipse class="st0" cx="34.4" cy="9.3" rx="0.3" ry="0.3"/>
</svg>
