<?xml version="1.0" encoding="utf-8"?>
<!-- Generator: Adobe Illustrator 19.1.0, SVG Export Plug-In . SVG Version: 6.00 Build 0)  -->
<svg version="1.1" id="Layer_1" xmlns="http://www.w3.org/2000/svg" xmlns:xlink="http://www.w3.org/1999/xlink" x="0px" y="0px"
	 viewBox="0 38 100 31" style="enable-background:new 0 38 100 31;" xml:space="preserve">
<style type="text/css">
	.st0{fill:#21409A;}
	.st1{fill:#E93829;}
	.st2{fill:#FFFFFF;}
	.st3{fill:#21409A;stroke:#21409A;stroke-width:0.5;stroke-miterlimit:10;}
	.st4{fill:#21409A;stroke:#21409A;stroke-width:0.2;stroke-miterlimit:10;}
	.st5{fill:#E93829;stroke:#FFFFFF;stroke-width:0.35;stroke-miterlimit:10;}
</style>
<path class="st0" d="M28.3,54.7c0-5.3-4.4-9.7-9.9-9.7s-9.9,4.3-9.9,9.7H28.3z"/>
<g>
	<path class="st1" d="M19.5,59.2"/>
	<g>
		<path class="st1" d="M21.9,61.8v4.9H27V55.2H8.5v11.4h4.8v-5.2C13.3,61.4,17,64.5,21.9,61.8"/>
		<path class="st1" d="M24.3,55.2c0,0-0.2,10.1,5.3,9.7c0,0,1.5-0.1,2.2-1.6c0,0,0.7-1.4,0.9-3.7h-1.6c0,0,0.3,2.8-1.4,3.1
			c0,0-2.3,0.4-1.4-7.4L24.3,55.2L24.3,55.2z"/>
	</g>
</g>
<path class="st0" d="M59.2,53.7c1,1.4,2.6,1,4.3-1.3c1.7-2.3,2.3-5.2,1.2-6.6c-1-1.4-4.6-0.2-5,0.5C57.9,49.2,58.2,52.3,59.2,53.7z"
	/>
<path class="st0" d="M63.1,52.7c0,0,2.7-2.5,3.3,2h15.4c0,0,0.4-2.3-2.2-4c-1.8-1.1-8-1.7-12.4-0.9c0,0-1.7-1.5-2.8-2
	C63.4,47.3,63.1,52.7,63.1,52.7z"/>
<path class="st1" d="M66.3,55.2c0,0,0.1,3.7,1.7,4.7v5.2l-1,1.5h4.2l-0.1-5.7c0,0,3.4,1.6,7.9-0.3l0.1,4.5l-0.9,1.4H82V56l1.5,1.1
	c0,0,0.7,0.4,0.6-0.6l-1.9-1.3H66.3z"/>
<polygon class="st2" points="63.1,48.9 62.2,49.4 62.4,48.3 61.6,47.5 62.6,47.3 63.1,46.3 63.6,47.3 64.6,47.5 63.9,48.3 64,49.4 
	"/>
<polygon class="st2" points="25.1,51.8 24.2,52.4 24.4,51.2 23.6,50.5 24.7,50.3 25.1,49.3 25.6,50.3 26.6,50.5 25.9,51.2 
	26.1,52.4 "/>
<polygon class="st2" points="11.1,58.8 10.2,59.4 10.4,58.2 9.6,57.5 10.7,57.3 11.1,56.3 11.6,57.3 12.6,57.5 11.9,58.2 12.1,59.4 
	"/>
<polygon class="st2" points="15.3,58.8 14.4,59.4 14.6,58.2 13.8,57.5 14.8,57.3 15.3,56.3 15.8,57.3 16.8,57.5 16,58.2 16.2,59.4 
	"/>
<polygon class="st2" points="19.5,58.8 18.6,59.4 18.8,58.2 18,57.5 19.1,57.3 19.5,56.3 20,57.3 21,57.5 20.3,58.2 20.5,59.4 "/>
<polygon class="st2" points="23.6,58.8 22.7,59.4 22.9,58.3 22.1,57.5 23.2,57.3 23.6,56.3 24.1,57.3 25.1,57.5 24.4,58.3 
	24.6,59.4 "/>
<polygon class="st2" points="70,58.8 69.1,59.4 69.3,58.2 68.6,57.5 69.6,57.3 70,56.3 70.5,57.3 71.5,57.5 70.8,58.2 71,59.4 "/>
<polygon class="st2" points="74.2,58.8 73.3,59.4 73.5,58.2 72.7,57.5 73.8,57.3 74.2,56.3 74.7,57.3 75.7,57.5 75,58.2 75.1,59.4 
	"/>
<polygon class="st2" points="78.4,58.8 77.5,59.4 77.7,58.2 77,57.5 78,57.3 78.4,56.3 78.9,57.3 79.9,57.5 79.2,58.2 79.4,59.4 "/>
<path class="st3" d="M64.6,46.2c0,0,1.4-2.5,0.7-4.2c0,0-1.8,1.3-2.7,3.4C62.7,45.4,63.5,46.7,64.6,46.2z"/>
<path class="st3" d="M62.1,46.5c0,0,1.4-3.7,0.4-5.3c0,0-2,2.6-2.5,4.8C60,46,61.1,47.2,62.1,46.5z"/>
<path class="st1" d="M83.9,56.1c0,0,1,0.6,1.2,1.9c0,0-0.8,0.2-2-0.9C83.1,57.1,83.1,56,83.9,56.1z"/>
<g>
	<g>
		<path class="st4" d="M36.5,55.7c-0.5,1.5-1.6,2.2-3.6,2.1c-1,0-1.9-0.2-2.6-0.5h-0.1v0.4c0,0.3,0,0.6,0.2,0.8c0,0,0.1,0.1,0.2,0.2
			c0.1,0.1,0.2,0.2,0.2,0.2c0,0.1,0,0.1-0.1,0.2c-0.1,0.1-0.2,0.1-0.4,0.1c-0.3,0-0.6-0.1-0.7-0.2c-0.1-0.1-0.1-0.2-0.2-0.4
			c0-0.3,0-0.6,0-0.9c0-0.2,0-0.4,0.1-0.8c0-0.3,0.1-0.6,0.1-0.8s0-0.5,0.1-0.8c0.1-0.4,0.1-0.6,0.1-0.8v-0.8c0,0,0-0.1-0.1-0.2
			c0-0.1-0.1-0.2-0.1-0.2c0-0.1,0.1-0.2,0.4-0.2c0.2,0,0.3,0,0.5,0.1c0.1,0.1,0.2,0.2,0.2,0.3s0,0.2-0.1,0.3c0,0.1-0.1,0.2-0.1,0.3
			v0.2c0.3-0.2,0.5-0.5,0.8-0.7c0.6-0.4,1.4-0.7,2.4-0.7c1.1,0,1.9,0.2,2.4,0.7c0.4,0.4,0.7,0.9,0.7,1.4
			C36.6,55.3,36.6,55.5,36.5,55.7z M35.8,55.2c0-0.5-0.1-0.9-0.4-1.2c-0.4-0.4-1-0.7-1.7-0.7c-1,0-1.8,0.3-2.5,1
			c-0.6,0.6-0.9,1.2-0.9,1.7v0.5c0,0.1,0.1,0.2,0.6,0.5s1.1,0.4,2,0.4c0.8,0,1.5-0.1,1.9-0.4c0.3-0.2,0.6-0.6,0.8-1
			C35.7,55.6,35.8,55.4,35.8,55.2z"/>
		<path class="st4" d="M42.6,57.3c0,0.5-0.2,0.9-0.6,1.3c-0.5,0.4-1.2,0.7-2.1,0.7c-0.9,0-1.6-0.2-2-0.5s-0.5-0.7-0.5-1.2
			s0.2-1,0.6-1.5c0.5-0.6,1.2-0.9,2-0.9c0.2,0,0.5,0.1,0.9,0.2C42,55.7,42.6,56.4,42.6,57.3z M41.8,57.3c0-0.4-0.1-0.7-0.3-1
			c-0.3-0.4-0.7-0.6-1.3-0.6c-0.7,0-1.2,0.2-1.6,0.7c-0.3,0.4-0.4,0.7-0.4,1.1c0,0.4,0.1,0.7,0.3,0.9c0.3,0.3,0.7,0.5,1.3,0.5
			c0.7,0,1.2-0.2,1.5-0.6C41.6,58,41.8,57.7,41.8,57.3z"/>
		<path class="st4" d="M44.8,58.9c0,0.2-0.2,0.2-0.5,0.2c-0.5,0-0.7-0.5-0.7-1.6v-3.9c0-0.1,0-0.2,0-0.3s0-0.2,0-0.3
			c0.2-0.1,0.4-0.1,0.5-0.1c0.2,0,0.3,0,0.5,0.1s0.2,0.1,0.2,0.2c0,0.1,0,0.1-0.1,0.2c-0.1,0.1-0.1,0.2-0.1,0.2
			c-0.1,0.4-0.2,0.9-0.2,1.7c0,1.1,0,1.7,0,1.7c0,0.7,0.1,1.3,0.3,1.6c0,0,0,0.1,0.1,0.1C44.7,58.8,44.8,58.9,44.8,58.9z"/>
		<path class="st4" d="M46.7,55.4v3c0,0.1,0.1,0.3,0.2,0.5c0,0-0.1,0.1-0.2,0.1c-0.5,0-0.8-0.1-0.8-0.4v-3.2
			C45.9,55.4,46.7,55.3,46.7,55.4z"/>
		<path class="st4" d="M50.8,56.3c-0.1,0-0.3,0.1-0.6,0.1c-0.4,0-0.6,0-0.6,0.1s0,0.4,0,1c0,0.5,0,0.8,0,0.9c0,0.1,0,0.2,0.1,0.3
			s0.1,0.2,0.1,0.3c0,0-0.1,0.1-0.2,0.1c-0.1,0-0.2,0.1-0.3,0.1c-0.2,0-0.4-0.1-0.5-0.4c-0.1-0.2-0.1-0.3-0.1-0.5c0-0.8,0-1.4,0-1.8
			c-0.1,0-0.3,0-0.7,0c-0.3,0-0.5,0-0.5-0.2s0.4-0.3,1.3-0.3l0.2-1.6c0,0,0,0,0-0.1v-0.1c0,0,0-0.1,0.1-0.1s0.2,0,0.3,0
			c0.4,0,0.6,0.1,0.6,0.3c0,0.1,0,0.4-0.1,0.7s-0.1,0.5-0.1,0.6s0,0.1,0,0.2h0.9c0.3,0,0.5,0.1,0.5,0.2C51.1,56.1,51,56.2,50.8,56.3
			z"/>
		<path class="st4" d="M52.8,55.4v3c0,0.1,0.1,0.3,0.2,0.5c0,0-0.1,0.1-0.2,0.1c-0.5,0-0.8-0.1-0.8-0.4v-3.2
			C52.1,55.4,52.8,55.3,52.8,55.4z"/>
		<path class="st4" d="M59.2,56.9c0,0.6-0.2,1.1-0.5,1.4c-0.4,0.5-1.1,0.8-2,0.8c-0.6,0-1.1-0.1-1.6-0.4c-0.1,0-0.1,0.2-0.1,0.5
			c0,0.8,0.1,1.3,0.2,1.6c0,0,0.1,0.1,0.2,0.2c0.1,0.1,0.1,0.2,0.1,0.2c0,0.1-0.1,0.1-0.3,0.1c-0.3,0-0.5,0-0.6-0.1
			c-0.1,0-0.2-0.2-0.3-0.4s-0.1-0.3-0.1-0.5v-2.2c0-0.2,0-0.5,0.1-0.8c0-0.4,0.1-0.7,0.1-0.8c0-0.2,0-0.4,0-0.6c0-0.3,0-0.5,0-0.6
			c0-0.4,0.2-0.6,0.6-0.6c0.2,0,0.3,0,0.3,0.1s0,0.4-0.1,0.6c0,0.3-0.1,0.5-0.1,0.6h0.1c0.3-0.2,0.5-0.4,0.8-0.5
			c0.3-0.2,0.7-0.3,1.1-0.3c0.7,0,1.3,0.2,1.7,0.5C59.1,56.1,59.2,56.4,59.2,56.9z M58.4,56.9c0-0.3-0.1-0.6-0.2-0.8
			c-0.2-0.3-0.5-0.5-0.9-0.5c-0.3,0-0.7,0.1-1.1,0.4c-0.4,0.2-0.7,0.5-0.8,0.8c-0.1,0.2-0.2,0.5-0.3,0.9c0,0.3-0.1,0.4-0.1,0.4
			s0,0,0.1,0.1c0.1,0,0.1,0,0.2,0.1c0.2,0.1,0.4,0.3,0.5,0.4c0.2,0.1,0.5,0.2,0.8,0.2c0.6,0,1.1-0.3,1.4-0.8
			C58.3,57.7,58.4,57.3,58.4,56.9z"/>
		<path class="st4" d="M64.9,58.5c0,0.2-0.3,0.4-0.9,0.5c-0.5,0.1-1,0.2-1.4,0.2c-0.3,0-0.6,0-1-0.1c-0.2,0-0.5-0.2-1-0.4
			s-0.8-0.4-0.8-0.4c0-0.2,0.2-0.3,0.6-0.2h0.1c0,0.2,0.4,0.4,1.1,0.6c0.6,0.2,1.1,0.3,1.5,0.3c0.5,0,0.7-0.1,0.7-0.3
			c0-0.1-0.3-0.2-0.9-0.4c-0.8-0.3-1.4-0.5-1.7-0.6c-0.6-0.3-0.9-0.7-0.9-1.1c0-0.3,0.1-0.6,0.4-0.9c0.3-0.3,0.8-0.5,1.3-0.5
			c0.4,0,0.8,0.1,1.4,0.3c0.5,0.2,0.8,0.4,0.9,0.6c0.1,0.2,0.1,0.3,0.1,0.5s-0.1,0.5-0.2,0.7c-0.1,0-0.2,0.1-0.3,0.1s-0.2,0-0.4,0
			s-0.2-0.1-0.2-0.1s0.1,0,0.2-0.2c0.1-0.1,0.1-0.3,0.1-0.5c0-0.6-0.4-0.9-1.1-0.9c-0.4,0-0.7,0.1-0.9,0.4c-0.2,0.2-0.3,0.4-0.3,0.7
			s0.3,0.6,0.9,0.8c0.2,0.1,0.8,0.3,1.7,0.6C64.5,58.2,64.9,58.4,64.9,58.5z"/>
	</g>
</g>
<circle class="st3" cx="46.3" cy="53.9" r="1"/>
<circle class="st5" cx="46.3" cy="53.9" r="0.8"/>
<circle class="st0" cx="46.3" cy="53.9" r="0.4"/>
<circle class="st3" cx="52.5" cy="53.8" r="1"/>
<circle class="st5" cx="52.5" cy="53.8" r="0.8"/>
<circle class="st0" cx="52.5" cy="53.8" r="0.4"/>
</svg>
