<?xml version="1.0" encoding="utf-8"?>
<!-- Generator: Adobe Illustrator 19.1.0, SVG Export Plug-In . SVG Version: 6.00 Build 0)  -->
<svg version="1.1" id="Layer_1" xmlns="http://www.w3.org/2000/svg" xmlns:xlink="http://www.w3.org/1999/xlink" x="0px" y="0px"
	 viewBox="0 0 59.3 18.7" style="enable-background:new 0 0 59.3 18.7;" xml:space="preserve">
<style type="text/css">
	.st0{fill:#21409A;}
	.st1{fill:#E93829;}
	.st2{fill:#FFFFFF;}
	.st3{fill:#21409A;stroke:#21409A;stroke-width:0.5;stroke-miterlimit:10;}
	.st4{fill:#21409A;stroke:#21409A;stroke-width:0.25;stroke-miterlimit:10;}
	.st5{fill:#E93829;stroke:#FFFFFF;stroke-width:0.25;stroke-miterlimit:10;}
</style>
<path class="st0" d="M19,9.9c0-3.6-3.3-6.6-7.4-6.6S4.1,6.2,4.1,9.9H19z"/>
<path class="st1" d="M12.4,13"/>
<path class="st1" d="M14.2,14.7l0,3.3H18v-7.7H4.1V18h3.6v-3.6C7.7,14.4,10.5,16.6,14.2,14.7"/>
<path class="st1" d="M15.8,10.2c0,0-0.2,6.9,4,6.6c0,0,1.1-0.1,1.7-1.1c0,0,0.6-1,0.7-2.5l-0.9,0c0,0-0.1,1.9-1.3,2.1
	c0,0-1.7,0.2-1.1-5H15.8z"/>
<path class="st0" d="M36.4,9.2c0.8,0.9,1.9,0.7,3.2-0.9s1.7-3.5,0.9-4.5c-0.8-0.9-3.5-0.1-3.7,0.3C35.4,6.2,35.6,8.3,36.4,9.2z"/>
<path class="st0" d="M39.3,8.5c0,0,2-1.7,2.5,1.4h11.5c0,0,0.3-1.6-1.7-2.7c-1.3-0.8-6-1.2-9.3-0.6c0,0-1.3-1-2.1-1.3
	C39.5,4.9,39.3,8.5,39.3,8.5z"/>
<path class="st1" d="M41.7,10.3c0,0,0.1,2.5,1.3,3.2V17l-0.8,1h3.1l-0.1-3.9c0,0,2.5,1.1,5.9-0.2l0.1,3.1l-0.7,1h2.9v-7.2l1.1,0.7
	c0,0,0.5,0.3,0.4-0.4l-1.4-0.9H41.7z"/>
<polygon class="st2" points="39.3,5.9 38.6,6.3 38.7,5.5 38.2,5 38.9,4.9 39.3,4.2 39.6,4.9 40.4,5 39.9,5.5 40,6.3 "/>
<polygon class="st2" points="16.6,8 15.9,8.3 16,7.6 15.5,7 16.2,6.9 16.6,6.2 16.9,6.9 17.7,7 17.2,7.6 17.3,8.3 "/>
<polygon class="st2" points="6.4,12.7 5.7,13.1 5.8,12.3 5.3,11.8 6.1,11.7 6.4,11 6.7,11.7 7.5,11.8 7,12.3 7.1,13.1 "/>
<polygon class="st2" points="9.2,12.7 8.5,13.1 8.7,12.3 8.1,11.8 8.9,11.7 9.2,11 9.6,11.7 10.4,11.8 9.8,12.3 9.9,13.1 "/>
<polygon class="st2" points="12.4,12.7 11.7,13.1 11.8,12.3 11.3,11.8 12.1,11.7 12.4,11 12.7,11.7 13.5,11.8 13,12.3 13.1,13.1 "/>
<polygon class="st2" points="15.5,12.7 14.8,13.1 14.9,12.3 14.4,11.8 15.1,11.7 15.5,11 15.8,11.7 16.6,11.8 16,12.3 16.2,13.1 "/>
<polygon class="st2" points="44.5,12.7 43.8,13.1 43.9,12.3 43.4,11.8 44.1,11.7 44.5,11 44.8,11.7 45.6,11.8 45,12.3 45.2,13.1 "/>
<polygon class="st2" points="47.6,12.7 46.9,13.1 47,12.3 46.5,11.8 47.3,11.7 47.6,11 48,11.7 48.7,11.8 48.2,12.3 48.3,13.1 "/>
<polygon class="st2" points="50.8,12.7 50.1,13.1 50.2,12.3 49.7,11.8 50.4,11.7 50.8,11 51.1,11.7 51.9,11.8 51.3,12.3 51.5,13.1 
	"/>
<path class="st3" d="M40.4,4.1c0,0,1.1-1.7,0.6-2.9c0,0-1.3,0.9-2,2.3C39,3.5,39.6,4.5,40.4,4.1z"/>
<path class="st3" d="M38.5,4.3c0,0,1.1-2.5,0.3-3.6c0,0-1.9,2.1-1.9,3.6C37,4.3,37.8,4.8,38.5,4.3z"/>
<path class="st1" d="M54.9,10.9c0,0,0.7,0.4,0.9,1.3c0,0-0.6,0.2-1.5-0.6C54.3,11.5,54.3,10.8,54.9,10.9z"/>
<path class="st4" d="M21.5,9c0-0.1,0-0.1,0-0.1c0,0,0-0.1,0-0.1s-0.1,0-0.1-0.1c0,0-0.1,0-0.2,0c-0.1,0-0.2,0-0.3,0l0-0.2
	c0.1,0,0.3,0,0.4-0.1s0.3,0,0.5-0.1c0.2,0,0.3,0,0.5,0c0.2,0,0.3,0,0.5,0c0.2,0,0.4,0,0.5,0.1c0.2,0,0.3,0.1,0.4,0.2
	s0.2,0.2,0.3,0.3s0.1,0.3,0.1,0.5c0,0.2,0,0.5-0.1,0.6c-0.1,0.2-0.2,0.3-0.3,0.5c-0.1,0.1-0.3,0.2-0.5,0.3c-0.2,0.1-0.4,0.1-0.7,0.1
	c-0.1,0-0.1,0-0.1,0s0-0.1,0-0.1v0c0,0,0,0,0,0c0.2,0,0.4,0,0.5-0.1c0.1,0,0.3-0.1,0.4-0.2s0.2-0.1,0.2-0.2c0.1-0.1,0.1-0.2,0.1-0.3
	c0-0.1,0.1-0.2,0.1-0.3c0-0.1,0-0.2,0-0.2c0-0.2,0-0.3-0.1-0.5c-0.1-0.1-0.1-0.2-0.2-0.3S23,8.6,22.9,8.6s-0.3,0-0.4,0
	c-0.1,0-0.1,0-0.2,0s-0.1,0-0.2,0c0,0.1,0,0.2,0,0.4s0,0.4,0,0.6c0,0.2,0,0.5,0,0.7c0,0.3,0,0.5,0,0.8c0,0.3,0,0.6,0,0.9
	c0,0.3,0,0.7,0,1h-0.6l0,0c0-0.4,0-0.7,0-1.1c0-0.3,0-0.7,0-1s0-0.6,0-0.9S21.5,9.3,21.5,9z"/>
<path class="st4" d="M23.5,12.3c0-0.1,0-0.3,0-0.4s0.1-0.3,0.1-0.4c0.1-0.1,0.1-0.2,0.2-0.4c0.1-0.1,0.2-0.2,0.3-0.3
	s0.2-0.1,0.4-0.2s0.3-0.1,0.4-0.1c0.2,0,0.3,0,0.5,0.1s0.2,0.2,0.3,0.3c0.1,0.1,0.2,0.2,0.2,0.4c0,0.1,0.1,0.3,0.1,0.5
	c0,0.1,0,0.3,0,0.4s-0.1,0.3-0.1,0.4c-0.1,0.1-0.1,0.2-0.2,0.4c-0.1,0.1-0.2,0.2-0.3,0.3s-0.2,0.1-0.4,0.2s-0.3,0.1-0.4,0.1
	c-0.2,0-0.3,0-0.5-0.1s-0.2-0.2-0.3-0.3s-0.2-0.2-0.2-0.4S23.5,12.4,23.5,12.3z M24,12.1c0,0.1,0,0.2,0,0.3c0,0.1,0,0.2,0.1,0.3
	c0,0.1,0.1,0.2,0.1,0.2s0.1,0.1,0.2,0.2c0.1,0.1,0.1,0.1,0.2,0.1c0.1,0,0.2,0,0.2,0c0.1,0,0.2,0,0.3-0.1c0.1,0,0.1-0.1,0.2-0.2
	s0.1-0.1,0.1-0.2c0-0.1,0.1-0.2,0.1-0.3s0-0.2,0-0.3s0-0.2,0-0.3c0-0.1,0-0.2,0-0.3c0-0.1,0-0.2-0.1-0.3c0-0.1-0.1-0.2-0.1-0.2
	s-0.1-0.1-0.2-0.2c-0.1-0.1-0.1-0.1-0.2-0.1c-0.1,0-0.2,0-0.2,0c-0.1,0-0.2,0-0.3,0.1c-0.1,0-0.1,0.1-0.2,0.2s-0.1,0.1-0.1,0.2
	c0,0.1-0.1,0.2-0.1,0.3s0,0.2,0,0.3S24,12,24,12.1z"/>
<path class="st4" d="M27.6,8.2c0,0.2-0.1,0.4-0.1,0.7s-0.1,0.5-0.1,0.7s0,0.5-0.1,0.7s0,0.5-0.1,0.7s0,0.5,0,0.7s0,0.4,0,0.6
	c0,0.1,0,0.2,0,0.3c0,0.1,0,0.2,0,0.2c0,0.1,0,0.1,0,0.2s0,0.1,0,0.1s0,0,0.1,0c0,0,0.1,0,0.1,0c0.1,0,0.1,0,0.2,0s0.2,0,0.2-0.1
	l0,0.1c0,0-0.1,0.1-0.2,0.1s-0.2,0.1-0.2,0.1s-0.2,0.1-0.2,0.1c-0.1,0-0.1,0-0.2,0c-0.1,0-0.1,0-0.2-0.1c0,0-0.1-0.1-0.1-0.2
	c0-0.1,0-0.2,0-0.3s0-0.3,0-0.5c0-0.1,0-0.2,0-0.3s0-0.3,0-0.4c0-0.2,0-0.3,0-0.5c0-0.2,0-0.4,0-0.6c0-0.2,0-0.4,0-0.6
	c0-0.2,0-0.4,0-0.6s0-0.4,0-0.6s0-0.3,0-0.5c0,0,0-0.1,0-0.1s0,0,0.1-0.1c0,0,0.1,0,0.1,0s0.1,0,0.1,0C27.4,8.1,27.5,8.2,27.6,8.2z"
	/>
<path class="st4" d="M29.4,10.7c0,0.1,0,0.3-0.1,0.4c0,0.1,0,0.3,0,0.4c0,0.1,0,0.3,0,0.4s0,0.2,0,0.3c0,0.1,0,0.3,0,0.3
	s0,0.2,0,0.2c0,0.1,0,0.1,0,0.2c0,0,0,0.1,0.1,0.1c0,0,0,0,0.1,0s0.1,0,0.1,0c0.1,0,0.1,0,0.2,0s0.2,0,0.2-0.1l0,0.1
	c0,0-0.1,0.1-0.2,0.1s-0.2,0.1-0.2,0.1c-0.1,0-0.2,0.1-0.2,0.1c-0.1,0-0.1,0-0.2,0c0,0-0.1,0-0.1,0c0,0-0.1,0-0.1,0
	c0,0,0-0.1-0.1-0.1s0-0.1,0-0.2s0-0.2,0-0.3s0-0.3,0-0.4c0-0.1,0-0.2,0-0.3s0-0.3,0-0.4s0-0.3,0-0.4s0-0.3,0-0.5c0,0,0-0.1,0-0.1
	s0,0,0.1-0.1s0.1,0,0.1,0s0.1,0,0.1,0C29.3,10.6,29.4,10.6,29.4,10.7z M29.3,9.8c0,0-0.1,0-0.1,0c0,0-0.1,0-0.1-0.1s0-0.1-0.1-0.1
	s0-0.1,0-0.1c0-0.1,0-0.1,0-0.2s0-0.1,0.1-0.1s0.1-0.1,0.1-0.1s0.1,0,0.1,0c0,0,0.1,0,0.1,0c0,0,0.1,0,0.1,0.1s0,0.1,0.1,0.1
	c0,0,0,0.1,0,0.1c0,0,0,0.1,0,0.1c0,0,0,0.1-0.1,0.1c0,0-0.1,0.1-0.1,0.1C29.4,9.8,29.3,9.8,29.3,9.8z"/>
<path class="st4" d="M31.7,9.4c-0.1,0.2-0.1,0.5-0.1,0.8c0,0.3-0.1,0.5-0.1,0.8c0.1,0,0.1,0,0.2,0c0.1,0,0.1,0,0.2,0s0.1,0,0.1,0
	c0,0,0.1,0,0.1,0c0.1,0,0.2,0,0.3,0c0,0,0,0,0,0.1s0,0,0,0.1c0,0.1,0,0.1-0.1,0.1c0,0-0.1,0-0.2,0c-0.1,0-0.2,0-0.3,0
	c-0.1,0-0.2,0-0.4,0c0,0.1,0,0.3,0,0.4s0,0.3,0,0.4s0,0.2,0,0.3c0,0.1,0,0.2,0,0.3c0,0.1,0,0.3,0,0.4c0,0.1,0,0.2,0.1,0.3
	c0,0.1,0.1,0.1,0.2,0.2c0.1,0,0.1,0.1,0.3,0.1c0.1,0,0.2,0,0.2,0s0.2-0.1,0.3-0.1c0,0,0.1,0.1,0.1,0.1c-0.1,0.1-0.2,0.1-0.3,0.1
	c-0.1,0-0.2,0.1-0.3,0.1c-0.1,0-0.2,0.1-0.2,0.1s-0.1,0-0.2,0c-0.1,0-0.2,0-0.2,0c-0.1,0-0.1-0.1-0.2-0.2c-0.1-0.1-0.1-0.2-0.1-0.3
	s0-0.3,0-0.5c0-0.1,0-0.2,0-0.4c0-0.1,0-0.3,0-0.4s0-0.3,0-0.4s0-0.3,0-0.4c-0.1,0-0.2,0-0.3,0s-0.2,0-0.2,0c0,0,0,0,0,0
	c0,0,0-0.1,0-0.1c0,0,0.1,0,0.1-0.1c0,0,0.1,0,0.2,0c0.1,0,0.1,0,0.2,0c0-0.3,0.1-0.5,0.1-0.8s0.1-0.5,0.1-0.6c0,0,0-0.1,0-0.1
	s0,0,0.1-0.1s0.1,0,0.1,0s0.1,0,0.1,0c0,0,0.1,0,0.1,0C31.6,9.4,31.7,9.4,31.7,9.4z"/>
<path class="st4" d="M33.9,10.7c0,0.1,0,0.3-0.1,0.4c0,0.1,0,0.3,0,0.4c0,0.1,0,0.3,0,0.4s0,0.2,0,0.3c0,0.1,0,0.3,0,0.3
	s0,0.2,0,0.2c0,0.1,0,0.1,0,0.2c0,0,0,0.1,0.1,0.1c0,0,0,0,0.1,0s0.1,0,0.1,0c0.1,0,0.1,0,0.2,0s0.2,0,0.2-0.1l0,0.1
	c0,0-0.1,0.1-0.2,0.1s-0.2,0.1-0.2,0.1c-0.1,0-0.2,0.1-0.2,0.1c-0.1,0-0.1,0-0.2,0c0,0-0.1,0-0.1,0c0,0-0.1,0-0.1,0
	c0,0,0-0.1-0.1-0.1s0-0.1,0-0.2s0-0.2,0-0.3s0-0.3,0-0.4c0-0.1,0-0.2,0-0.3s0-0.3,0-0.4s0-0.3,0-0.4s0-0.3,0-0.5c0,0,0-0.1,0-0.1
	s0,0,0.1-0.1s0.1,0,0.1,0s0.1,0,0.1,0C33.7,10.6,33.8,10.6,33.9,10.7z M33.7,9.8c0,0-0.1,0-0.1,0c0,0-0.1,0-0.1-0.1s0-0.1-0.1-0.1
	s0-0.1,0-0.1c0-0.1,0-0.1,0-0.2s0-0.1,0.1-0.1s0.1-0.1,0.1-0.1s0.1,0,0.1,0c0,0,0.1,0,0.1,0c0,0,0.1,0,0.1,0.1s0,0.1,0.1,0.1
	c0,0,0,0.1,0,0.1c0,0,0,0.1,0,0.1c0,0,0,0.1-0.1,0.1c0,0-0.1,0.1-0.1,0.1C33.8,9.8,33.7,9.8,33.7,9.8z"/>
<path class="st4" d="M34.8,11c0.2,0,0.3-0.1,0.4-0.1s0.2,0,0.3-0.1c0.1,0,0.1,0,0.2,0c0,0,0.1,0,0.1,0c0,0,0.1,0,0.1,0
	c0,0,0.1,0,0.1,0c0,0,0,0.1,0.1,0.1s0,0.1,0,0.1c0,0,0,0.1,0,0.1s0,0.1,0,0.2c0,0.1,0,0.2,0,0.4c0,0.1,0,0.3,0,0.5l0,0
	c0.1-0.3,0.2-0.5,0.3-0.7c0.1-0.2,0.2-0.4,0.4-0.5s0.3-0.2,0.4-0.3s0.2-0.1,0.4-0.1c0.1,0,0.2,0,0.2,0s0.1,0.1,0.2,0.1
	c0.1,0.1,0.1,0.1,0.1,0.2s0.1,0.1,0.1,0.2s0,0.2,0,0.2s0,0.2,0,0.2c0,0.2,0,0.4-0.1,0.5s-0.1,0.3-0.2,0.5s-0.2,0.3-0.2,0.4
	s-0.2,0.2-0.3,0.3s-0.2,0.1-0.4,0.2c-0.1,0-0.2,0.1-0.4,0.1c-0.1,0-0.3,0-0.4-0.1c-0.1,0-0.2-0.1-0.4-0.2c0,0.3,0,0.7,0,1
	s0,0.7,0,1.1l-0.4,0l0,0c0-0.2,0-0.5,0.1-0.8s0-0.5,0-0.8c0-0.3,0-0.5,0-0.8c0-0.3,0-0.5,0-0.7s0-0.4,0-0.6c0-0.2,0-0.3,0-0.5
	c0,0,0-0.1,0-0.1c0,0,0-0.1,0-0.1c0,0,0,0-0.1-0.1s-0.1,0-0.1,0c0,0-0.1,0-0.2,0c-0.1,0-0.2,0-0.3,0.1L34.8,11z M35.8,13.2
	c0.1,0.1,0.2,0.2,0.3,0.2c0.1,0,0.2,0.1,0.3,0.1c0.2,0,0.3,0,0.4-0.1c0.1-0.1,0.2-0.2,0.3-0.3c0.1-0.1,0.2-0.3,0.2-0.5
	c0.1-0.2,0.1-0.4,0.1-0.6c0-0.1,0-0.2,0-0.3c0-0.1,0-0.2-0.1-0.3c0-0.1-0.1-0.1-0.1-0.2s-0.1-0.1-0.2-0.1c-0.1,0-0.2,0-0.2,0.1
	c-0.1,0-0.2,0.1-0.2,0.2s-0.1,0.2-0.2,0.2s-0.1,0.2-0.2,0.3c-0.1,0.1-0.1,0.2-0.2,0.3c-0.1,0.1-0.1,0.2-0.1,0.3
	c0,0.1-0.1,0.2-0.1,0.3S35.8,13.2,35.8,13.2z"/>
<path class="st4" d="M39.2,12.9c0,0.1,0,0.2,0.1,0.3c0,0.1,0.1,0.1,0.2,0.2c0.1,0,0.1,0.1,0.2,0.1s0.2,0,0.2,0c0.1,0,0.1,0,0.2,0
	c0.1,0,0.1,0,0.2-0.1s0.1-0.1,0.1-0.1c0-0.1,0-0.1,0-0.2c0-0.1,0-0.1-0.1-0.2c0-0.1-0.1-0.1-0.1-0.1s-0.1-0.1-0.2-0.1
	c-0.1,0-0.2-0.1-0.2-0.1c-0.1,0-0.1-0.1-0.2-0.1s-0.1-0.1-0.2-0.1s-0.1-0.1-0.2-0.1s-0.1-0.1-0.2-0.2S39,11.9,39,11.8s0-0.1,0-0.2
	c0-0.1,0-0.2,0-0.2c0-0.1,0.1-0.1,0.1-0.2s0.1-0.1,0.2-0.2s0.2-0.1,0.2-0.1c0.1,0,0.2-0.1,0.3-0.1c0.1,0,0.2,0,0.3,0
	c0.1,0,0.2,0,0.3,0c0.1,0,0.2,0.1,0.3,0.1s0.1,0.1,0.2,0.2c0,0.1,0.1,0.1,0.1,0.2c0,0,0,0.1,0,0.1c0,0,0,0.1-0.1,0.1
	c0,0-0.1,0.1-0.1,0.1s-0.1,0-0.2,0c-0.1,0-0.1,0-0.2,0l0,0c0,0,0-0.1,0-0.1c0,0,0-0.1,0-0.1c0-0.1,0-0.1,0-0.2s-0.1-0.1-0.1-0.1
	s-0.1,0-0.2-0.1c-0.1,0-0.1,0-0.2,0c-0.1,0-0.2,0-0.3,0c-0.1,0-0.1,0.1-0.2,0.1s-0.1,0.1-0.1,0.1c0,0.1,0,0.1,0,0.2
	c0,0.1,0,0.1,0.1,0.2s0.1,0.1,0.2,0.2c0.1,0,0.1,0.1,0.2,0.1c0.1,0,0.2,0.1,0.3,0.1c0.1,0,0.2,0.1,0.3,0.1s0.2,0.1,0.3,0.2
	c0.1,0.1,0.1,0.1,0.2,0.2c0,0.1,0.1,0.2,0.1,0.3c0,0.1,0,0.3-0.1,0.4s-0.1,0.2-0.2,0.3s-0.2,0.1-0.4,0.2c-0.1,0-0.3,0.1-0.4,0.1
	c-0.1,0-0.1,0-0.2,0s-0.2,0-0.2,0s-0.1,0-0.2-0.1c-0.1,0-0.1-0.1-0.2-0.1s-0.1-0.1-0.1-0.1c0,0,0-0.1,0-0.2c0-0.1,0-0.1,0-0.1
	c0,0,0.1-0.1,0.1-0.1c0,0,0.1,0,0.1,0S39.1,12.9,39.2,12.9L39.2,12.9z"/>
<ellipse class="st3" cx="33.7" cy="9.4" rx="0.8" ry="0.7"/>
<ellipse class="st5" cx="33.7" cy="9.4" rx="0.6" ry="0.5"/>
<ellipse class="st0" cx="33.7" cy="9.4" rx="0.3" ry="0.3"/>
<ellipse class="st3" cx="29.3" cy="9.4" rx="0.8" ry="0.7"/>
<ellipse class="st5" cx="29.3" cy="9.4" rx="0.6" ry="0.5"/>
<ellipse class="st0" cx="29.3" cy="9.4" rx="0.3" ry="0.3"/>
</svg>
